<mxfile host="app.diagrams.net" modified="2022-11-22T06:28:50.798Z" agent="5.0 (Macintosh; Intel Mac OS X 10_15_7) AppleWebKit/605.1.15 (KHTML, like Gecko) Version/16.1 Safari/605.1.15" etag="NZD5CpNpVAzYbcxulQ5k" version="20.5.3" type="github" pages="3">
  <diagram id="C6kjWLTeuLRCPxCHQ4SO" name="Страница 1">
    <mxGraphModel dx="1940" dy="731" grid="1" gridSize="10" guides="1" tooltips="1" connect="1" arrows="1" fold="1" page="1" pageScale="1" pageWidth="827" pageHeight="1169" math="0" shadow="0">
      <root>
        <mxCell id="0" />
        <mxCell id="1" parent="0" />
        <mxCell id="ricNmYwPZk0qTseHlc0t-1" value="" style="rounded=1;whiteSpace=wrap;html=1;" parent="1" vertex="1">
          <mxGeometry x="440" y="260" width="40" height="40" as="geometry" />
        </mxCell>
        <mxCell id="ricNmYwPZk0qTseHlc0t-2" value="" style="rounded=1;whiteSpace=wrap;html=1;" parent="1" vertex="1">
          <mxGeometry x="480" y="260" width="40" height="40" as="geometry" />
        </mxCell>
        <mxCell id="ricNmYwPZk0qTseHlc0t-3" value="" style="rounded=1;whiteSpace=wrap;html=1;" parent="1" vertex="1">
          <mxGeometry x="520" y="260" width="40" height="40" as="geometry" />
        </mxCell>
        <mxCell id="ricNmYwPZk0qTseHlc0t-4" value="" style="rounded=1;whiteSpace=wrap;html=1;" parent="1" vertex="1">
          <mxGeometry x="580" y="260" width="40" height="40" as="geometry" />
        </mxCell>
        <mxCell id="ricNmYwPZk0qTseHlc0t-5" value="" style="rounded=1;whiteSpace=wrap;html=1;" parent="1" vertex="1">
          <mxGeometry x="400" y="260" width="40" height="40" as="geometry" />
        </mxCell>
        <mxCell id="ricNmYwPZk0qTseHlc0t-6" value="" style="rounded=1;whiteSpace=wrap;html=1;" parent="1" vertex="1">
          <mxGeometry x="440" y="380" width="40" height="40" as="geometry" />
        </mxCell>
        <mxCell id="ricNmYwPZk0qTseHlc0t-7" value="" style="rounded=1;whiteSpace=wrap;html=1;" parent="1" vertex="1">
          <mxGeometry x="480" y="380" width="40" height="40" as="geometry" />
        </mxCell>
        <mxCell id="ricNmYwPZk0qTseHlc0t-8" value="" style="rounded=1;whiteSpace=wrap;html=1;" parent="1" vertex="1">
          <mxGeometry x="520" y="380" width="40" height="40" as="geometry" />
        </mxCell>
        <mxCell id="ricNmYwPZk0qTseHlc0t-9" value="" style="rounded=1;whiteSpace=wrap;html=1;" parent="1" vertex="1">
          <mxGeometry x="580" y="380" width="40" height="40" as="geometry" />
        </mxCell>
        <mxCell id="ricNmYwPZk0qTseHlc0t-10" value="" style="rounded=1;whiteSpace=wrap;html=1;" parent="1" vertex="1">
          <mxGeometry x="400" y="380" width="40" height="40" as="geometry" />
        </mxCell>
        <mxCell id="ricNmYwPZk0qTseHlc0t-11" value="" style="rounded=1;whiteSpace=wrap;html=1;" parent="1" vertex="1">
          <mxGeometry x="440" y="500" width="40" height="40" as="geometry" />
        </mxCell>
        <mxCell id="ricNmYwPZk0qTseHlc0t-12" value="" style="rounded=1;whiteSpace=wrap;html=1;" parent="1" vertex="1">
          <mxGeometry x="480" y="500" width="40" height="40" as="geometry" />
        </mxCell>
        <mxCell id="ricNmYwPZk0qTseHlc0t-13" value="" style="rounded=1;whiteSpace=wrap;html=1;" parent="1" vertex="1">
          <mxGeometry x="520" y="500" width="40" height="40" as="geometry" />
        </mxCell>
        <mxCell id="ricNmYwPZk0qTseHlc0t-14" value="" style="rounded=1;whiteSpace=wrap;html=1;" parent="1" vertex="1">
          <mxGeometry x="580" y="500" width="40" height="40" as="geometry" />
        </mxCell>
        <mxCell id="ricNmYwPZk0qTseHlc0t-15" value="" style="rounded=1;whiteSpace=wrap;html=1;" parent="1" vertex="1">
          <mxGeometry x="400" y="500" width="40" height="40" as="geometry" />
        </mxCell>
        <mxCell id="ricNmYwPZk0qTseHlc0t-16" value="ThreadSafeFileReadr" style="rounded=1;whiteSpace=wrap;html=1;" parent="1" vertex="1">
          <mxGeometry x="-120" y="320" width="160" height="160" as="geometry" />
        </mxCell>
        <mxCell id="ricNmYwPZk0qTseHlc0t-29" style="edgeStyle=orthogonalEdgeStyle;rounded=0;orthogonalLoop=1;jettySize=auto;html=1;exitX=1;exitY=0.5;exitDx=0;exitDy=0;entryX=0;entryY=0.5;entryDx=0;entryDy=0;" parent="1" source="ricNmYwPZk0qTseHlc0t-22" target="ricNmYwPZk0qTseHlc0t-5" edge="1">
          <mxGeometry relative="1" as="geometry" />
        </mxCell>
        <mxCell id="ricNmYwPZk0qTseHlc0t-33" value="push" style="edgeLabel;html=1;align=center;verticalAlign=middle;resizable=0;points=[];" parent="ricNmYwPZk0qTseHlc0t-29" vertex="1" connectable="0">
          <mxGeometry x="-0.1176" y="1" relative="1" as="geometry">
            <mxPoint as="offset" />
          </mxGeometry>
        </mxCell>
        <mxCell id="ricNmYwPZk0qTseHlc0t-53" style="edgeStyle=orthogonalEdgeStyle;rounded=0;orthogonalLoop=1;jettySize=auto;html=1;exitX=0;exitY=0.5;exitDx=0;exitDy=0;entryX=1;entryY=0.5;entryDx=0;entryDy=0;" parent="1" source="ricNmYwPZk0qTseHlc0t-22" target="ricNmYwPZk0qTseHlc0t-16" edge="1">
          <mxGeometry relative="1" as="geometry" />
        </mxCell>
        <mxCell id="ricNmYwPZk0qTseHlc0t-55" value="getLine()" style="edgeLabel;html=1;align=center;verticalAlign=middle;resizable=0;points=[];" parent="ricNmYwPZk0qTseHlc0t-53" vertex="1" connectable="0">
          <mxGeometry x="0.6042" y="-3" relative="1" as="geometry">
            <mxPoint y="-7" as="offset" />
          </mxGeometry>
        </mxCell>
        <mxCell id="ricNmYwPZk0qTseHlc0t-22" value="TaskCreator" style="rounded=1;whiteSpace=wrap;html=1;" parent="1" vertex="1">
          <mxGeometry x="200" y="240" width="120" height="80" as="geometry" />
        </mxCell>
        <mxCell id="ricNmYwPZk0qTseHlc0t-30" style="edgeStyle=orthogonalEdgeStyle;rounded=0;orthogonalLoop=1;jettySize=auto;html=1;exitX=1;exitY=0.5;exitDx=0;exitDy=0;" parent="1" source="ricNmYwPZk0qTseHlc0t-26" target="ricNmYwPZk0qTseHlc0t-10" edge="1">
          <mxGeometry relative="1" as="geometry" />
        </mxCell>
        <mxCell id="ricNmYwPZk0qTseHlc0t-34" value="push" style="edgeLabel;html=1;align=center;verticalAlign=middle;resizable=0;points=[];" parent="ricNmYwPZk0qTseHlc0t-30" vertex="1" connectable="0">
          <mxGeometry x="-0.0882" y="3" relative="1" as="geometry">
            <mxPoint as="offset" />
          </mxGeometry>
        </mxCell>
        <mxCell id="ricNmYwPZk0qTseHlc0t-58" style="edgeStyle=orthogonalEdgeStyle;rounded=0;orthogonalLoop=1;jettySize=auto;html=1;exitX=0;exitY=0.5;exitDx=0;exitDy=0;entryX=1;entryY=0.5;entryDx=0;entryDy=0;dashed=1;" parent="1" source="ricNmYwPZk0qTseHlc0t-26" target="ricNmYwPZk0qTseHlc0t-16" edge="1">
          <mxGeometry relative="1" as="geometry" />
        </mxCell>
        <mxCell id="ricNmYwPZk0qTseHlc0t-26" value="TaskCreator" style="rounded=1;whiteSpace=wrap;html=1;" parent="1" vertex="1">
          <mxGeometry x="200" y="360" width="120" height="80" as="geometry" />
        </mxCell>
        <mxCell id="ricNmYwPZk0qTseHlc0t-31" style="edgeStyle=orthogonalEdgeStyle;rounded=0;orthogonalLoop=1;jettySize=auto;html=1;exitX=1;exitY=0.5;exitDx=0;exitDy=0;entryX=0;entryY=0.5;entryDx=0;entryDy=0;" parent="1" source="ricNmYwPZk0qTseHlc0t-27" target="ricNmYwPZk0qTseHlc0t-15" edge="1">
          <mxGeometry relative="1" as="geometry" />
        </mxCell>
        <mxCell id="ricNmYwPZk0qTseHlc0t-35" value="push" style="edgeLabel;html=1;align=center;verticalAlign=middle;resizable=0;points=[];" parent="ricNmYwPZk0qTseHlc0t-31" vertex="1" connectable="0">
          <mxGeometry x="-0.1471" relative="1" as="geometry">
            <mxPoint as="offset" />
          </mxGeometry>
        </mxCell>
        <mxCell id="ricNmYwPZk0qTseHlc0t-59" style="edgeStyle=orthogonalEdgeStyle;rounded=0;orthogonalLoop=1;jettySize=auto;html=1;exitX=0;exitY=0.5;exitDx=0;exitDy=0;entryX=1;entryY=0.5;entryDx=0;entryDy=0;dashed=1;" parent="1" source="ricNmYwPZk0qTseHlc0t-27" target="ricNmYwPZk0qTseHlc0t-16" edge="1">
          <mxGeometry relative="1" as="geometry" />
        </mxCell>
        <mxCell id="ricNmYwPZk0qTseHlc0t-27" value="TaskCreator" style="rounded=1;whiteSpace=wrap;html=1;" parent="1" vertex="1">
          <mxGeometry x="200" y="480" width="120" height="80" as="geometry" />
        </mxCell>
        <mxCell id="ricNmYwPZk0qTseHlc0t-47" style="edgeStyle=orthogonalEdgeStyle;rounded=0;orthogonalLoop=1;jettySize=auto;html=1;exitX=0;exitY=0.5;exitDx=0;exitDy=0;entryX=1;entryY=0.5;entryDx=0;entryDy=0;" parent="1" source="ricNmYwPZk0qTseHlc0t-36" target="ricNmYwPZk0qTseHlc0t-4" edge="1">
          <mxGeometry relative="1" as="geometry" />
        </mxCell>
        <mxCell id="ricNmYwPZk0qTseHlc0t-48" value="pop" style="edgeLabel;html=1;align=center;verticalAlign=middle;resizable=0;points=[];" parent="ricNmYwPZk0qTseHlc0t-47" vertex="1" connectable="0">
          <mxGeometry x="-0.1667" relative="1" as="geometry">
            <mxPoint as="offset" />
          </mxGeometry>
        </mxCell>
        <mxCell id="ricNmYwPZk0qTseHlc0t-72" style="edgeStyle=orthogonalEdgeStyle;rounded=0;orthogonalLoop=1;jettySize=auto;html=1;exitX=1;exitY=0.5;exitDx=0;exitDy=0;entryX=0;entryY=0.5;entryDx=0;entryDy=0;" parent="1" source="ricNmYwPZk0qTseHlc0t-36" target="ricNmYwPZk0qTseHlc0t-65" edge="1">
          <mxGeometry relative="1" as="geometry" />
        </mxCell>
        <mxCell id="ricNmYwPZk0qTseHlc0t-73" value="write" style="edgeLabel;html=1;align=center;verticalAlign=middle;resizable=0;points=[];" parent="ricNmYwPZk0qTseHlc0t-72" vertex="1" connectable="0">
          <mxGeometry x="-0.1429" y="2" relative="1" as="geometry">
            <mxPoint as="offset" />
          </mxGeometry>
        </mxCell>
        <mxCell id="ricNmYwPZk0qTseHlc0t-36" value="TaskWorker" style="rounded=1;whiteSpace=wrap;html=1;" parent="1" vertex="1">
          <mxGeometry x="660" y="240" width="120" height="80" as="geometry" />
        </mxCell>
        <mxCell id="ricNmYwPZk0qTseHlc0t-37" value="TaskWorker" style="rounded=1;whiteSpace=wrap;html=1;" parent="1" vertex="1">
          <mxGeometry x="660" y="360" width="120" height="80" as="geometry" />
        </mxCell>
        <mxCell id="ricNmYwPZk0qTseHlc0t-38" value="TaskWorker" style="rounded=1;whiteSpace=wrap;html=1;" parent="1" vertex="1">
          <mxGeometry x="660" y="480" width="120" height="80" as="geometry" />
        </mxCell>
        <mxCell id="ricNmYwPZk0qTseHlc0t-49" style="edgeStyle=orthogonalEdgeStyle;rounded=0;orthogonalLoop=1;jettySize=auto;html=1;exitX=0;exitY=0.5;exitDx=0;exitDy=0;entryX=1;entryY=0.5;entryDx=0;entryDy=0;" parent="1" edge="1">
          <mxGeometry relative="1" as="geometry">
            <mxPoint x="660" y="399.76" as="sourcePoint" />
            <mxPoint x="620" y="399.76" as="targetPoint" />
          </mxGeometry>
        </mxCell>
        <mxCell id="ricNmYwPZk0qTseHlc0t-50" value="pop" style="edgeLabel;html=1;align=center;verticalAlign=middle;resizable=0;points=[];" parent="ricNmYwPZk0qTseHlc0t-49" vertex="1" connectable="0">
          <mxGeometry x="-0.1667" relative="1" as="geometry">
            <mxPoint as="offset" />
          </mxGeometry>
        </mxCell>
        <mxCell id="ricNmYwPZk0qTseHlc0t-51" style="edgeStyle=orthogonalEdgeStyle;rounded=0;orthogonalLoop=1;jettySize=auto;html=1;exitX=0;exitY=0.5;exitDx=0;exitDy=0;entryX=1;entryY=0.5;entryDx=0;entryDy=0;" parent="1" edge="1">
          <mxGeometry relative="1" as="geometry">
            <mxPoint x="660" y="519.76" as="sourcePoint" />
            <mxPoint x="620" y="519.76" as="targetPoint" />
          </mxGeometry>
        </mxCell>
        <mxCell id="ricNmYwPZk0qTseHlc0t-52" value="pop" style="edgeLabel;html=1;align=center;verticalAlign=middle;resizable=0;points=[];" parent="ricNmYwPZk0qTseHlc0t-51" vertex="1" connectable="0">
          <mxGeometry x="-0.1667" relative="1" as="geometry">
            <mxPoint as="offset" />
          </mxGeometry>
        </mxCell>
        <mxCell id="ricNmYwPZk0qTseHlc0t-65" value="ResultFile" style="rounded=1;whiteSpace=wrap;html=1;" parent="1" vertex="1">
          <mxGeometry x="840" y="240" width="120" height="80" as="geometry" />
        </mxCell>
        <mxCell id="ricNmYwPZk0qTseHlc0t-66" value="ResultFile" style="rounded=1;whiteSpace=wrap;html=1;" parent="1" vertex="1">
          <mxGeometry x="840" y="360" width="120" height="80" as="geometry" />
        </mxCell>
        <mxCell id="ricNmYwPZk0qTseHlc0t-67" value="ResultFile" style="rounded=1;whiteSpace=wrap;html=1;" parent="1" vertex="1">
          <mxGeometry x="840" y="480" width="120" height="80" as="geometry" />
        </mxCell>
        <mxCell id="ricNmYwPZk0qTseHlc0t-68" value="TaskQueue" style="text;html=1;strokeColor=none;fillColor=none;align=center;verticalAlign=middle;whiteSpace=wrap;rounded=0;" parent="1" vertex="1">
          <mxGeometry x="440" y="230" width="80" height="30" as="geometry" />
        </mxCell>
        <mxCell id="ricNmYwPZk0qTseHlc0t-69" value="TaskQueue" style="text;html=1;strokeColor=none;fillColor=none;align=center;verticalAlign=middle;whiteSpace=wrap;rounded=0;" parent="1" vertex="1">
          <mxGeometry x="440" y="350" width="80" height="30" as="geometry" />
        </mxCell>
        <mxCell id="ricNmYwPZk0qTseHlc0t-71" value="TaskQueue" style="text;html=1;strokeColor=none;fillColor=none;align=center;verticalAlign=middle;whiteSpace=wrap;rounded=0;" parent="1" vertex="1">
          <mxGeometry x="440" y="470" width="80" height="30" as="geometry" />
        </mxCell>
        <mxCell id="ricNmYwPZk0qTseHlc0t-74" style="edgeStyle=orthogonalEdgeStyle;rounded=0;orthogonalLoop=1;jettySize=auto;html=1;exitX=1;exitY=0.5;exitDx=0;exitDy=0;entryX=0;entryY=0.5;entryDx=0;entryDy=0;" parent="1" edge="1">
          <mxGeometry relative="1" as="geometry">
            <mxPoint x="780" y="399.71" as="sourcePoint" />
            <mxPoint x="840" y="399.71" as="targetPoint" />
          </mxGeometry>
        </mxCell>
        <mxCell id="ricNmYwPZk0qTseHlc0t-75" value="write" style="edgeLabel;html=1;align=center;verticalAlign=middle;resizable=0;points=[];" parent="ricNmYwPZk0qTseHlc0t-74" vertex="1" connectable="0">
          <mxGeometry x="-0.1429" y="2" relative="1" as="geometry">
            <mxPoint as="offset" />
          </mxGeometry>
        </mxCell>
        <mxCell id="ricNmYwPZk0qTseHlc0t-76" style="edgeStyle=orthogonalEdgeStyle;rounded=0;orthogonalLoop=1;jettySize=auto;html=1;exitX=1;exitY=0.5;exitDx=0;exitDy=0;entryX=0;entryY=0.5;entryDx=0;entryDy=0;" parent="1" edge="1">
          <mxGeometry relative="1" as="geometry">
            <mxPoint x="780" y="519.71" as="sourcePoint" />
            <mxPoint x="840" y="519.71" as="targetPoint" />
          </mxGeometry>
        </mxCell>
        <mxCell id="ricNmYwPZk0qTseHlc0t-77" value="write" style="edgeLabel;html=1;align=center;verticalAlign=middle;resizable=0;points=[];" parent="ricNmYwPZk0qTseHlc0t-76" vertex="1" connectable="0">
          <mxGeometry x="-0.1429" y="2" relative="1" as="geometry">
            <mxPoint as="offset" />
          </mxGeometry>
        </mxCell>
        <mxCell id="ricNmYwPZk0qTseHlc0t-78" value="Read threads" style="text;html=1;align=center;verticalAlign=middle;resizable=0;points=[];autosize=1;strokeColor=none;fillColor=none;fontSize=19;fontStyle=1" parent="1" vertex="1">
          <mxGeometry x="190" y="160" width="140" height="40" as="geometry" />
        </mxCell>
        <mxCell id="ricNmYwPZk0qTseHlc0t-80" value="Write threads" style="text;html=1;align=center;verticalAlign=middle;resizable=0;points=[];autosize=1;strokeColor=none;fillColor=none;fontSize=19;fontStyle=1" parent="1" vertex="1">
          <mxGeometry x="650" y="160" width="140" height="40" as="geometry" />
        </mxCell>
        <mxCell id="ricNmYwPZk0qTseHlc0t-81" value="" style="endArrow=none;dashed=1;html=1;dashPattern=1 3;strokeWidth=2;rounded=0;fontSize=19;" parent="1" edge="1">
          <mxGeometry width="50" height="50" relative="1" as="geometry">
            <mxPoint x="160" y="340" as="sourcePoint" />
            <mxPoint x="1000" y="340" as="targetPoint" />
          </mxGeometry>
        </mxCell>
        <mxCell id="ricNmYwPZk0qTseHlc0t-82" value="" style="endArrow=none;dashed=1;html=1;dashPattern=1 3;strokeWidth=2;rounded=0;fontSize=19;" parent="1" edge="1">
          <mxGeometry width="50" height="50" relative="1" as="geometry">
            <mxPoint x="159.99999999999977" y="460" as="sourcePoint" />
            <mxPoint x="1000" y="460" as="targetPoint" />
          </mxGeometry>
        </mxCell>
      </root>
    </mxGraphModel>
  </diagram>
  <diagram id="UhAqgNY9ok7voY9Afn6J" name="Страница 2">
    <mxGraphModel dx="2010" dy="776" grid="1" gridSize="10" guides="1" tooltips="1" connect="1" arrows="1" fold="1" page="1" pageScale="1" pageWidth="827" pageHeight="1169" math="0" shadow="0">
      <root>
        <mxCell id="0" />
        <mxCell id="1" parent="0" />
        <mxCell id="4MBnlJAVe4gqlmMc3j68-1" value="" style="endArrow=none;html=1;rounded=0;" edge="1" parent="1">
          <mxGeometry width="50" height="50" relative="1" as="geometry">
            <mxPoint x="490" y="150" as="sourcePoint" />
            <mxPoint x="490" y="110" as="targetPoint" />
          </mxGeometry>
        </mxCell>
        <mxCell id="4MBnlJAVe4gqlmMc3j68-2" value="" style="endArrow=none;html=1;rounded=0;" edge="1" parent="1">
          <mxGeometry width="50" height="50" relative="1" as="geometry">
            <mxPoint x="490" y="150" as="sourcePoint" />
            <mxPoint x="570" y="150" as="targetPoint" />
          </mxGeometry>
        </mxCell>
        <mxCell id="4MBnlJAVe4gqlmMc3j68-3" value="" style="endArrow=none;html=1;rounded=0;" edge="1" parent="1">
          <mxGeometry width="50" height="50" relative="1" as="geometry">
            <mxPoint x="490" y="110" as="sourcePoint" />
            <mxPoint x="570" y="110" as="targetPoint" />
          </mxGeometry>
        </mxCell>
        <mxCell id="4MBnlJAVe4gqlmMc3j68-4" value="" style="endArrow=none;html=1;rounded=0;" edge="1" parent="1">
          <mxGeometry width="50" height="50" relative="1" as="geometry">
            <mxPoint x="570" y="110" as="sourcePoint" />
            <mxPoint x="590" y="130" as="targetPoint" />
          </mxGeometry>
        </mxCell>
        <mxCell id="4MBnlJAVe4gqlmMc3j68-5" value="" style="endArrow=none;html=1;rounded=0;" edge="1" parent="1">
          <mxGeometry width="50" height="50" relative="1" as="geometry">
            <mxPoint x="570" y="150" as="sourcePoint" />
            <mxPoint x="590" y="130" as="targetPoint" />
          </mxGeometry>
        </mxCell>
        <mxCell id="4MBnlJAVe4gqlmMc3j68-6" value="" style="endArrow=none;html=1;rounded=0;" edge="1" parent="1">
          <mxGeometry width="50" height="50" relative="1" as="geometry">
            <mxPoint x="730" y="150" as="sourcePoint" />
            <mxPoint x="730" y="110" as="targetPoint" />
          </mxGeometry>
        </mxCell>
        <mxCell id="4MBnlJAVe4gqlmMc3j68-7" value="" style="endArrow=none;html=1;rounded=0;" edge="1" parent="1">
          <mxGeometry width="50" height="50" relative="1" as="geometry">
            <mxPoint x="730" y="150" as="sourcePoint" />
            <mxPoint x="650" y="150" as="targetPoint" />
          </mxGeometry>
        </mxCell>
        <mxCell id="4MBnlJAVe4gqlmMc3j68-8" value="" style="endArrow=none;html=1;rounded=0;" edge="1" parent="1">
          <mxGeometry width="50" height="50" relative="1" as="geometry">
            <mxPoint x="730" y="110" as="sourcePoint" />
            <mxPoint x="650" y="110" as="targetPoint" />
          </mxGeometry>
        </mxCell>
        <mxCell id="4MBnlJAVe4gqlmMc3j68-9" value="" style="endArrow=none;html=1;rounded=0;" edge="1" parent="1">
          <mxGeometry width="50" height="50" relative="1" as="geometry">
            <mxPoint x="650" y="110" as="sourcePoint" />
            <mxPoint x="670" y="130" as="targetPoint" />
          </mxGeometry>
        </mxCell>
        <mxCell id="4MBnlJAVe4gqlmMc3j68-10" value="" style="endArrow=none;html=1;rounded=0;" edge="1" parent="1">
          <mxGeometry width="50" height="50" relative="1" as="geometry">
            <mxPoint x="650" y="150" as="sourcePoint" />
            <mxPoint x="670" y="130" as="targetPoint" />
          </mxGeometry>
        </mxCell>
        <mxCell id="Jaxo5HZSxw4HA_GKdRnC-4" value="main thread&amp;nbsp;" style="swimlane;whiteSpace=wrap;html=1;fillColor=#FFFFFF;" vertex="1" parent="1">
          <mxGeometry x="240" y="280" width="200" height="800" as="geometry" />
        </mxCell>
        <mxCell id="Jaxo5HZSxw4HA_GKdRnC-12" style="edgeStyle=orthogonalEdgeStyle;rounded=0;orthogonalLoop=1;jettySize=auto;html=1;exitX=0.5;exitY=1;exitDx=0;exitDy=0;endArrow=open;endFill=0;" edge="1" parent="Jaxo5HZSxw4HA_GKdRnC-4" source="DagHtTSFLhGbqhAZoUyn-1">
          <mxGeometry relative="1" as="geometry">
            <mxPoint x="100" y="160" as="targetPoint" />
          </mxGeometry>
        </mxCell>
        <mxCell id="DagHtTSFLhGbqhAZoUyn-1" value="" style="ellipse;whiteSpace=wrap;html=1;aspect=fixed;fillColor=#000000;" vertex="1" parent="Jaxo5HZSxw4HA_GKdRnC-4">
          <mxGeometry x="80" y="40" width="40" height="40" as="geometry" />
        </mxCell>
        <mxCell id="Jaxo5HZSxw4HA_GKdRnC-13" value="создание threadPool" style="rounded=1;whiteSpace=wrap;html=1;fillColor=#FFFFFF;" vertex="1" parent="Jaxo5HZSxw4HA_GKdRnC-4">
          <mxGeometry x="40" y="300" width="120" height="60" as="geometry" />
        </mxCell>
        <mxCell id="Jaxo5HZSxw4HA_GKdRnC-26" style="edgeStyle=orthogonalEdgeStyle;rounded=1;orthogonalLoop=1;jettySize=auto;html=1;exitX=0.5;exitY=1;exitDx=0;exitDy=0;entryX=0.5;entryY=0;entryDx=0;entryDy=0;strokeWidth=1;endArrow=open;endFill=0;" edge="1" parent="Jaxo5HZSxw4HA_GKdRnC-4" source="Jaxo5HZSxw4HA_GKdRnC-25" target="Jaxo5HZSxw4HA_GKdRnC-13">
          <mxGeometry relative="1" as="geometry" />
        </mxCell>
        <mxCell id="Jaxo5HZSxw4HA_GKdRnC-25" value="создание ThreadSafeFileReader" style="rounded=1;whiteSpace=wrap;html=1;fillColor=#FFFFFF;" vertex="1" parent="Jaxo5HZSxw4HA_GKdRnC-4">
          <mxGeometry x="40" y="160" width="120" height="60" as="geometry" />
        </mxCell>
        <mxCell id="Jaxo5HZSxw4HA_GKdRnC-5" value="readerThread1" style="swimlane;whiteSpace=wrap;html=1;fillColor=#FFFFFF;" vertex="1" parent="1">
          <mxGeometry x="40" y="280" width="200" height="800" as="geometry" />
        </mxCell>
        <mxCell id="Jaxo5HZSxw4HA_GKdRnC-6" value="readerThread2" style="swimlane;whiteSpace=wrap;html=1;fillColor=#FFFFFF;startSize=23;rounded=0;" vertex="1" parent="1">
          <mxGeometry x="440" y="280" width="200" height="800" as="geometry" />
        </mxCell>
        <mxCell id="Jaxo5HZSxw4HA_GKdRnC-20" value="ThreadSafeFileReader" style="swimlane;whiteSpace=wrap;html=1;rounded=0;fillColor=#FFFFFF;" vertex="1" parent="Jaxo5HZSxw4HA_GKdRnC-6">
          <mxGeometry x="-185" y="550" width="170" height="160" as="geometry" />
        </mxCell>
        <mxCell id="Jaxo5HZSxw4HA_GKdRnC-21" value="" style="endArrow=open;html=1;rounded=1;strokeWidth=1;endFill=0;" edge="1" parent="Jaxo5HZSxw4HA_GKdRnC-6">
          <mxGeometry width="50" height="50" relative="1" as="geometry">
            <mxPoint x="-300" y="400" as="sourcePoint" />
            <mxPoint x="-300" y="490" as="targetPoint" />
          </mxGeometry>
        </mxCell>
        <mxCell id="Jaxo5HZSxw4HA_GKdRnC-23" value="" style="rounded=1;whiteSpace=wrap;html=1;fillColor=#FFFFFF;" vertex="1" parent="Jaxo5HZSxw4HA_GKdRnC-6">
          <mxGeometry x="-360" y="490" width="120" height="60" as="geometry" />
        </mxCell>
        <mxCell id="Jaxo5HZSxw4HA_GKdRnC-22" value="" style="endArrow=open;html=1;rounded=1;strokeWidth=1;endFill=0;" edge="1" parent="Jaxo5HZSxw4HA_GKdRnC-6">
          <mxGeometry width="50" height="50" relative="1" as="geometry">
            <mxPoint x="99" y="400" as="sourcePoint" />
            <mxPoint x="99.41000000000008" y="490" as="targetPoint" />
          </mxGeometry>
        </mxCell>
        <mxCell id="Jaxo5HZSxw4HA_GKdRnC-16" value="" style="endArrow=none;html=1;rounded=1;strokeWidth=6;" edge="1" parent="Jaxo5HZSxw4HA_GKdRnC-6">
          <mxGeometry width="50" height="50" relative="1" as="geometry">
            <mxPoint x="-560" y="399.41" as="sourcePoint" />
            <mxPoint x="360" y="399.41" as="targetPoint" />
          </mxGeometry>
        </mxCell>
        <mxCell id="Jaxo5HZSxw4HA_GKdRnC-7" value="writerThread2" style="swimlane;whiteSpace=wrap;html=1;fillColor=#FFFFFF;startSize=23;" vertex="1" parent="1">
          <mxGeometry x="640" y="280" width="200" height="560" as="geometry" />
        </mxCell>
        <mxCell id="Jaxo5HZSxw4HA_GKdRnC-8" value="writerThread1" style="swimlane;whiteSpace=wrap;html=1;fillColor=#FFFFFF;" vertex="1" parent="1">
          <mxGeometry x="-160" y="280" width="200" height="560" as="geometry" />
        </mxCell>
        <mxCell id="Jaxo5HZSxw4HA_GKdRnC-28" style="edgeStyle=orthogonalEdgeStyle;rounded=1;orthogonalLoop=1;jettySize=auto;html=1;exitX=0.5;exitY=1;exitDx=0;exitDy=0;strokeWidth=1;endArrow=open;endFill=0;" edge="1" parent="1" source="Jaxo5HZSxw4HA_GKdRnC-13">
          <mxGeometry relative="1" as="geometry">
            <mxPoint x="340" y="670" as="targetPoint" />
          </mxGeometry>
        </mxCell>
      </root>
    </mxGraphModel>
  </diagram>
  <diagram id="Shzl_mZJ_qgCZZdaweqZ" name="Страница 3">
    <mxGraphModel dx="1455" dy="2124" grid="1" gridSize="10" guides="1" tooltips="1" connect="1" arrows="1" fold="1" page="1" pageScale="1" pageWidth="827" pageHeight="1169" math="0" shadow="0">
      <root>
        <mxCell id="0" />
        <mxCell id="1" parent="0" />
        <mxCell id="w73TdLwUnTMGMDBZPKyH-65" value="" style="rounded=1;whiteSpace=wrap;html=1;fillColor=#D5E8D4;strokeColor=#82b366;movable=1;resizable=1;rotatable=1;deletable=1;editable=1;connectable=1;" vertex="1" parent="1">
          <mxGeometry x="240" y="-110.71" width="800" height="1230.71" as="geometry" />
        </mxCell>
        <mxCell id="w73TdLwUnTMGMDBZPKyH-69" value="" style="triangle;whiteSpace=wrap;html=1;rounded=0;fillColor=default;gradientColor=none;strokeColor=none;" vertex="1" parent="1">
          <mxGeometry x="460" y="720" width="20" height="40" as="geometry" />
        </mxCell>
        <mxCell id="w73TdLwUnTMGMDBZPKyH-68" value="" style="rounded=0;whiteSpace=wrap;html=1;fillColor=default;strokeColor=none;" vertex="1" parent="1">
          <mxGeometry x="380" y="719.29" width="80" height="40.71" as="geometry" />
        </mxCell>
        <mxCell id="whEQJXg8LmWs57zOOwAL-3" style="edgeStyle=orthogonalEdgeStyle;rounded=1;orthogonalLoop=1;jettySize=auto;html=1;exitX=0.5;exitY=1;exitDx=0;exitDy=0;strokeWidth=1;endArrow=open;endFill=0;entryX=0.5;entryY=0;entryDx=0;entryDy=0;" edge="1" parent="1" source="whEQJXg8LmWs57zOOwAL-1" target="whEQJXg8LmWs57zOOwAL-4">
          <mxGeometry relative="1" as="geometry">
            <mxPoint x="420" y="-100.70999999999998" as="targetPoint" />
          </mxGeometry>
        </mxCell>
        <mxCell id="whEQJXg8LmWs57zOOwAL-1" value="" style="ellipse;whiteSpace=wrap;html=1;aspect=fixed;fillColor=#000000;" vertex="1" parent="1">
          <mxGeometry x="400" y="-160.70999999999998" width="40" height="40" as="geometry" />
        </mxCell>
        <mxCell id="whEQJXg8LmWs57zOOwAL-6" style="edgeStyle=orthogonalEdgeStyle;rounded=1;orthogonalLoop=1;jettySize=auto;html=1;exitX=0.5;exitY=1;exitDx=0;exitDy=0;entryX=0.5;entryY=0;entryDx=0;entryDy=0;strokeWidth=1;endArrow=open;endFill=0;" edge="1" parent="1" source="whEQJXg8LmWs57zOOwAL-4" target="whEQJXg8LmWs57zOOwAL-5">
          <mxGeometry relative="1" as="geometry" />
        </mxCell>
        <mxCell id="whEQJXg8LmWs57zOOwAL-4" value="считать &amp;nbsp;строку" style="rounded=1;whiteSpace=wrap;html=1;fillColor=#FFFFFF;" vertex="1" parent="1">
          <mxGeometry x="360" y="-40.70999999999998" width="120" height="80" as="geometry" />
        </mxCell>
        <mxCell id="VH2hl6DuIMkExFH228gK-14" style="edgeStyle=orthogonalEdgeStyle;rounded=1;orthogonalLoop=1;jettySize=auto;html=1;exitX=0;exitY=0.5;exitDx=0;exitDy=0;strokeWidth=1;endArrow=open;endFill=0;entryX=0;entryY=0.5;entryDx=0;entryDy=0;" edge="1" parent="1" source="whEQJXg8LmWs57zOOwAL-5" target="VH2hl6DuIMkExFH228gK-26">
          <mxGeometry relative="1" as="geometry">
            <mxPoint x="370" y="739.29" as="targetPoint" />
            <Array as="points">
              <mxPoint x="320" y="119" />
              <mxPoint x="320" y="739" />
            </Array>
          </mxGeometry>
        </mxCell>
        <mxCell id="VH2hl6DuIMkExFH228gK-15" value="да" style="edgeLabel;html=1;align=center;verticalAlign=middle;resizable=0;points=[];" vertex="1" connectable="0" parent="VH2hl6DuIMkExFH228gK-14">
          <mxGeometry x="-0.9102" y="1" relative="1" as="geometry">
            <mxPoint x="2" y="-11" as="offset" />
          </mxGeometry>
        </mxCell>
        <mxCell id="VH2hl6DuIMkExFH228gK-16" style="edgeStyle=orthogonalEdgeStyle;rounded=1;orthogonalLoop=1;jettySize=auto;html=1;exitX=0.5;exitY=1;exitDx=0;exitDy=0;strokeWidth=1;endArrow=open;endFill=0;" edge="1" parent="1" source="whEQJXg8LmWs57zOOwAL-5" target="whEQJXg8LmWs57zOOwAL-7">
          <mxGeometry relative="1" as="geometry" />
        </mxCell>
        <mxCell id="VH2hl6DuIMkExFH228gK-22" value="нет" style="edgeLabel;html=1;align=center;verticalAlign=middle;resizable=0;points=[];" vertex="1" connectable="0" parent="VH2hl6DuIMkExFH228gK-16">
          <mxGeometry x="-0.2" y="3" relative="1" as="geometry">
            <mxPoint x="17" as="offset" />
          </mxGeometry>
        </mxCell>
        <mxCell id="whEQJXg8LmWs57zOOwAL-5" value="Строка пустая?" style="rhombus;whiteSpace=wrap;html=1;rounded=0;fillColor=#FFFFFF;" vertex="1" parent="1">
          <mxGeometry x="380" y="79.29000000000002" width="80" height="80" as="geometry" />
        </mxCell>
        <mxCell id="VH2hl6DuIMkExFH228gK-17" style="edgeStyle=orthogonalEdgeStyle;rounded=1;orthogonalLoop=1;jettySize=auto;html=1;exitX=0.5;exitY=1;exitDx=0;exitDy=0;strokeWidth=1;endArrow=open;endFill=0;" edge="1" parent="1" source="whEQJXg8LmWs57zOOwAL-7" target="whEQJXg8LmWs57zOOwAL-8">
          <mxGeometry relative="1" as="geometry" />
        </mxCell>
        <mxCell id="whEQJXg8LmWs57zOOwAL-7" value="преобразовать строку в число n" style="rounded=1;whiteSpace=wrap;html=1;fillColor=#FFFFFF;" vertex="1" parent="1">
          <mxGeometry x="360" y="199.29000000000002" width="120" height="80" as="geometry" />
        </mxCell>
        <mxCell id="VH2hl6DuIMkExFH228gK-18" style="edgeStyle=orthogonalEdgeStyle;rounded=1;orthogonalLoop=1;jettySize=auto;html=1;exitX=0.5;exitY=1;exitDx=0;exitDy=0;entryX=0.5;entryY=0;entryDx=0;entryDy=0;strokeWidth=1;endArrow=open;endFill=0;" edge="1" parent="1" source="whEQJXg8LmWs57zOOwAL-8" target="whEQJXg8LmWs57zOOwAL-10">
          <mxGeometry relative="1" as="geometry" />
        </mxCell>
        <mxCell id="whEQJXg8LmWs57zOOwAL-8" value="queueMutex.lock()" style="rounded=1;whiteSpace=wrap;html=1;fillColor=#FFFFFF;" vertex="1" parent="1">
          <mxGeometry x="360" y="319.29" width="120" height="80" as="geometry" />
        </mxCell>
        <mxCell id="VH2hl6DuIMkExFH228gK-21" style="edgeStyle=orthogonalEdgeStyle;rounded=1;orthogonalLoop=1;jettySize=auto;html=1;exitX=1;exitY=0.5;exitDx=0;exitDy=0;entryX=1;entryY=0.5;entryDx=0;entryDy=0;strokeWidth=1;endArrow=open;endFill=0;" edge="1" parent="1" source="whEQJXg8LmWs57zOOwAL-9" target="whEQJXg8LmWs57zOOwAL-4">
          <mxGeometry relative="1" as="geometry">
            <Array as="points">
              <mxPoint x="520" y="599.29" />
              <mxPoint x="520" y="-0.7099999999999795" />
            </Array>
          </mxGeometry>
        </mxCell>
        <mxCell id="whEQJXg8LmWs57zOOwAL-9" value="queueMutex.unlock()" style="rounded=1;whiteSpace=wrap;html=1;fillColor=#FFFFFF;" vertex="1" parent="1">
          <mxGeometry x="360" y="559.29" width="120" height="80" as="geometry" />
        </mxCell>
        <mxCell id="VH2hl6DuIMkExFH228gK-27" style="edgeStyle=orthogonalEdgeStyle;rounded=1;orthogonalLoop=1;jettySize=auto;html=1;exitX=0.5;exitY=1;exitDx=0;exitDy=0;entryX=0.5;entryY=0;entryDx=0;entryDy=0;strokeWidth=1;endArrow=open;endFill=0;" edge="1" parent="1" source="whEQJXg8LmWs57zOOwAL-10" target="whEQJXg8LmWs57zOOwAL-9">
          <mxGeometry relative="1" as="geometry" />
        </mxCell>
        <mxCell id="whEQJXg8LmWs57zOOwAL-10" value="добавить &amp;nbsp;число в очередь" style="rounded=1;whiteSpace=wrap;html=1;fillColor=#FFFFFF;" vertex="1" parent="1">
          <mxGeometry x="360" y="439.29" width="120" height="80" as="geometry" />
        </mxCell>
        <mxCell id="VH2hl6DuIMkExFH228gK-1" value="" style="endArrow=none;html=1;rounded=0;" edge="1" parent="1">
          <mxGeometry width="50" height="50" relative="1" as="geometry">
            <mxPoint x="380" y="759.29" as="sourcePoint" />
            <mxPoint x="380" y="719.29" as="targetPoint" />
          </mxGeometry>
        </mxCell>
        <mxCell id="VH2hl6DuIMkExFH228gK-2" value="" style="endArrow=none;html=1;rounded=0;" edge="1" parent="1">
          <mxGeometry width="50" height="50" relative="1" as="geometry">
            <mxPoint x="380" y="759.29" as="sourcePoint" />
            <mxPoint x="460" y="759.29" as="targetPoint" />
          </mxGeometry>
        </mxCell>
        <mxCell id="VH2hl6DuIMkExFH228gK-3" value="" style="endArrow=none;html=1;rounded=0;" edge="1" parent="1">
          <mxGeometry width="50" height="50" relative="1" as="geometry">
            <mxPoint x="380" y="719.29" as="sourcePoint" />
            <mxPoint x="460" y="719.29" as="targetPoint" />
          </mxGeometry>
        </mxCell>
        <mxCell id="VH2hl6DuIMkExFH228gK-4" value="" style="endArrow=none;html=1;rounded=0;" edge="1" parent="1">
          <mxGeometry width="50" height="50" relative="1" as="geometry">
            <mxPoint x="460" y="719.29" as="sourcePoint" />
            <mxPoint x="480" y="739.29" as="targetPoint" />
          </mxGeometry>
        </mxCell>
        <mxCell id="VH2hl6DuIMkExFH228gK-5" value="" style="endArrow=none;html=1;rounded=0;" edge="1" parent="1">
          <mxGeometry width="50" height="50" relative="1" as="geometry">
            <mxPoint x="460" y="759.29" as="sourcePoint" />
            <mxPoint x="480" y="739.29" as="targetPoint" />
          </mxGeometry>
        </mxCell>
        <mxCell id="w73TdLwUnTMGMDBZPKyH-38" style="edgeStyle=orthogonalEdgeStyle;rounded=1;orthogonalLoop=1;jettySize=auto;html=1;exitX=0.5;exitY=1;exitDx=0;exitDy=0;strokeWidth=1;endArrow=open;endFill=0;" edge="1" parent="1" source="VH2hl6DuIMkExFH228gK-26">
          <mxGeometry relative="1" as="geometry">
            <mxPoint x="420" y="1150" as="targetPoint" />
          </mxGeometry>
        </mxCell>
        <mxCell id="VH2hl6DuIMkExFH228gK-26" value="Сигнал об окончании чтения" style="text;html=1;strokeColor=none;fillColor=none;align=center;verticalAlign=middle;whiteSpace=wrap;rounded=0;" vertex="1" parent="1">
          <mxGeometry x="380" y="719.29" width="80" height="40" as="geometry" />
        </mxCell>
        <mxCell id="VH2hl6DuIMkExFH228gK-28" style="edgeStyle=orthogonalEdgeStyle;rounded=1;orthogonalLoop=1;jettySize=auto;html=1;exitX=0.5;exitY=1;exitDx=0;exitDy=0;strokeWidth=1;endArrow=open;endFill=0;entryX=0.5;entryY=0;entryDx=0;entryDy=0;" edge="1" parent="1" source="VH2hl6DuIMkExFH228gK-29">
          <mxGeometry relative="1" as="geometry">
            <mxPoint x="780" y="-40.71" as="targetPoint" />
          </mxGeometry>
        </mxCell>
        <mxCell id="VH2hl6DuIMkExFH228gK-29" value="" style="ellipse;whiteSpace=wrap;html=1;aspect=fixed;fillColor=#000000;" vertex="1" parent="1">
          <mxGeometry x="760" y="-160.71" width="40" height="40" as="geometry" />
        </mxCell>
        <mxCell id="w73TdLwUnTMGMDBZPKyH-26" style="edgeStyle=orthogonalEdgeStyle;rounded=1;orthogonalLoop=1;jettySize=auto;html=1;exitX=0.5;exitY=1;exitDx=0;exitDy=0;entryX=0.5;entryY=0;entryDx=0;entryDy=0;strokeWidth=1;endArrow=open;endFill=0;" edge="1" parent="1" source="VH2hl6DuIMkExFH228gK-42" target="w73TdLwUnTMGMDBZPKyH-25">
          <mxGeometry relative="1" as="geometry" />
        </mxCell>
        <mxCell id="VH2hl6DuIMkExFH228gK-42" value="получить простые делители числа" style="rounded=1;whiteSpace=wrap;html=1;fillColor=#FFFFFF;" vertex="1" parent="1">
          <mxGeometry x="720" y="689.29" width="120" height="80" as="geometry" />
        </mxCell>
        <mxCell id="w73TdLwUnTMGMDBZPKyH-56" style="edgeStyle=orthogonalEdgeStyle;rounded=1;orthogonalLoop=1;jettySize=auto;html=1;exitX=0.5;exitY=1;exitDx=0;exitDy=0;entryX=0.5;entryY=0;entryDx=0;entryDy=0;strokeWidth=1;endArrow=open;endFill=0;" edge="1" parent="1" source="VH2hl6DuIMkExFH228gK-44" target="w73TdLwUnTMGMDBZPKyH-54">
          <mxGeometry relative="1" as="geometry" />
        </mxCell>
        <mxCell id="VH2hl6DuIMkExFH228gK-44" value="взять число из очереди" style="rounded=1;whiteSpace=wrap;html=1;fillColor=#FFFFFF;" vertex="1" parent="1">
          <mxGeometry x="720" y="399.29" width="120" height="80" as="geometry" />
        </mxCell>
        <mxCell id="w73TdLwUnTMGMDBZPKyH-48" style="edgeStyle=orthogonalEdgeStyle;rounded=1;orthogonalLoop=1;jettySize=auto;html=1;exitX=0.5;exitY=1;exitDx=0;exitDy=0;entryX=0.5;entryY=0;entryDx=0;entryDy=0;strokeWidth=1;endArrow=open;endFill=0;" edge="1" parent="1" source="w73TdLwUnTMGMDBZPKyH-7" target="w73TdLwUnTMGMDBZPKyH-47">
          <mxGeometry relative="1" as="geometry" />
        </mxCell>
        <mxCell id="w73TdLwUnTMGMDBZPKyH-35" style="edgeStyle=orthogonalEdgeStyle;rounded=1;orthogonalLoop=1;jettySize=auto;html=1;exitX=0;exitY=0.5;exitDx=0;exitDy=0;strokeWidth=1;endArrow=open;endFill=0;entryX=0;entryY=0.5;entryDx=0;entryDy=0;" edge="1" parent="1" source="w73TdLwUnTMGMDBZPKyH-8" target="w73TdLwUnTMGMDBZPKyH-36">
          <mxGeometry relative="1" as="geometry">
            <mxPoint x="690" y="1119.29" as="targetPoint" />
            <Array as="points">
              <mxPoint x="680" y="189.29" />
              <mxPoint x="680" y="1049.29" />
            </Array>
          </mxGeometry>
        </mxCell>
        <mxCell id="w73TdLwUnTMGMDBZPKyH-58" value="да" style="edgeLabel;html=1;align=center;verticalAlign=middle;resizable=0;points=[];" vertex="1" connectable="0" parent="w73TdLwUnTMGMDBZPKyH-35">
          <mxGeometry x="-0.9686" y="1" relative="1" as="geometry">
            <mxPoint x="1" y="-11" as="offset" />
          </mxGeometry>
        </mxCell>
        <mxCell id="w73TdLwUnTMGMDBZPKyH-51" style="edgeStyle=orthogonalEdgeStyle;rounded=1;orthogonalLoop=1;jettySize=auto;html=1;exitX=0.5;exitY=1;exitDx=0;exitDy=0;strokeWidth=1;endArrow=open;endFill=0;entryX=0.5;entryY=0;entryDx=0;entryDy=0;" edge="1" parent="1" source="w73TdLwUnTMGMDBZPKyH-8" target="w73TdLwUnTMGMDBZPKyH-15">
          <mxGeometry relative="1" as="geometry">
            <mxPoint x="780.04" y="249.29" as="targetPoint" />
          </mxGeometry>
        </mxCell>
        <mxCell id="w73TdLwUnTMGMDBZPKyH-59" value="нет" style="edgeLabel;html=1;align=center;verticalAlign=middle;resizable=0;points=[];" vertex="1" connectable="0" parent="w73TdLwUnTMGMDBZPKyH-51">
          <mxGeometry x="-0.2353" y="2" relative="1" as="geometry">
            <mxPoint x="8" y="5" as="offset" />
          </mxGeometry>
        </mxCell>
        <mxCell id="w73TdLwUnTMGMDBZPKyH-8" value="Сигнал пришел и очередь пуста?" style="rhombus;whiteSpace=wrap;html=1;rounded=0;fillColor=#FFFFFF;" vertex="1" parent="1">
          <mxGeometry x="710" y="149.29" width="140" height="80" as="geometry" />
        </mxCell>
        <mxCell id="w73TdLwUnTMGMDBZPKyH-17" style="edgeStyle=orthogonalEdgeStyle;rounded=1;orthogonalLoop=1;jettySize=auto;html=1;exitX=1;exitY=0.5;exitDx=0;exitDy=0;strokeWidth=1;endArrow=open;endFill=0;" edge="1" parent="1" source="w73TdLwUnTMGMDBZPKyH-15">
          <mxGeometry relative="1" as="geometry">
            <mxPoint x="790" y="-70.71000000000001" as="targetPoint" />
            <Array as="points">
              <mxPoint x="920" y="309.29" />
              <mxPoint x="920" y="-70.71000000000001" />
            </Array>
          </mxGeometry>
        </mxCell>
        <mxCell id="w73TdLwUnTMGMDBZPKyH-18" value="да" style="edgeLabel;html=1;align=center;verticalAlign=middle;resizable=0;points=[];" vertex="1" connectable="0" parent="w73TdLwUnTMGMDBZPKyH-17">
          <mxGeometry x="-0.7304" relative="1" as="geometry">
            <mxPoint x="-50" y="-2" as="offset" />
          </mxGeometry>
        </mxCell>
        <mxCell id="w73TdLwUnTMGMDBZPKyH-52" style="edgeStyle=orthogonalEdgeStyle;rounded=1;orthogonalLoop=1;jettySize=auto;html=1;exitX=0.5;exitY=1;exitDx=0;exitDy=0;entryX=0.5;entryY=0;entryDx=0;entryDy=0;strokeWidth=1;endArrow=open;endFill=0;" edge="1" parent="1" source="w73TdLwUnTMGMDBZPKyH-15" target="VH2hl6DuIMkExFH228gK-44">
          <mxGeometry relative="1" as="geometry" />
        </mxCell>
        <mxCell id="w73TdLwUnTMGMDBZPKyH-53" value="нет" style="edgeLabel;html=1;align=center;verticalAlign=middle;resizable=0;points=[];" vertex="1" connectable="0" parent="w73TdLwUnTMGMDBZPKyH-52">
          <mxGeometry x="-0.1529" y="3" relative="1" as="geometry">
            <mxPoint x="7" y="-1" as="offset" />
          </mxGeometry>
        </mxCell>
        <mxCell id="w73TdLwUnTMGMDBZPKyH-15" value="очередь пуста?" style="rhombus;whiteSpace=wrap;html=1;rounded=0;fillColor=#FFFFFF;" vertex="1" parent="1">
          <mxGeometry x="710" y="269.29" width="140" height="80" as="geometry" />
        </mxCell>
        <mxCell id="w73TdLwUnTMGMDBZPKyH-30" style="edgeStyle=orthogonalEdgeStyle;rounded=1;orthogonalLoop=1;jettySize=auto;html=1;exitX=1;exitY=0.5;exitDx=0;exitDy=0;strokeWidth=1;endArrow=open;endFill=0;" edge="1" parent="1" source="w73TdLwUnTMGMDBZPKyH-25">
          <mxGeometry relative="1" as="geometry">
            <mxPoint x="790" y="-90.71000000000001" as="targetPoint" />
            <Array as="points">
              <mxPoint x="960" y="889.29" />
              <mxPoint x="960" y="-90.71000000000001" />
            </Array>
          </mxGeometry>
        </mxCell>
        <mxCell id="w73TdLwUnTMGMDBZPKyH-25" value="записать &amp;nbsp;простые делители в файл" style="rounded=1;whiteSpace=wrap;html=1;fillColor=#FFFFFF;" vertex="1" parent="1">
          <mxGeometry x="720" y="849.29" width="120" height="80" as="geometry" />
        </mxCell>
        <mxCell id="w73TdLwUnTMGMDBZPKyH-43" style="edgeStyle=orthogonalEdgeStyle;rounded=1;orthogonalLoop=1;jettySize=auto;html=1;exitX=0.5;exitY=1;exitDx=0;exitDy=0;strokeWidth=1;endArrow=open;endFill=0;" edge="1" parent="1" source="w73TdLwUnTMGMDBZPKyH-36">
          <mxGeometry relative="1" as="geometry">
            <mxPoint x="780" y="1150" as="targetPoint" />
          </mxGeometry>
        </mxCell>
        <mxCell id="w73TdLwUnTMGMDBZPKyH-36" value="закрыть файл для запись" style="rounded=1;whiteSpace=wrap;html=1;fillColor=#FFFFFF;" vertex="1" parent="1">
          <mxGeometry x="720" y="1009.29" width="120" height="80" as="geometry" />
        </mxCell>
        <mxCell id="w73TdLwUnTMGMDBZPKyH-40" value="" style="endArrow=none;html=1;rounded=1;strokeWidth=8;" edge="1" parent="1">
          <mxGeometry width="50" height="50" relative="1" as="geometry">
            <mxPoint x="320" y="1160" as="sourcePoint" />
            <mxPoint x="960" y="1160" as="targetPoint" />
          </mxGeometry>
        </mxCell>
        <mxCell id="w73TdLwUnTMGMDBZPKyH-44" value="" style="endArrow=classic;html=1;rounded=1;strokeWidth=1;" edge="1" parent="1">
          <mxGeometry width="50" height="50" relative="1" as="geometry">
            <mxPoint x="640" y="1160" as="sourcePoint" />
            <mxPoint x="640" y="1240" as="targetPoint" />
          </mxGeometry>
        </mxCell>
        <mxCell id="w73TdLwUnTMGMDBZPKyH-46" value="Конец работы" style="rounded=1;whiteSpace=wrap;html=1;fillColor=#FFFFFF;" vertex="1" parent="1">
          <mxGeometry x="580" y="1240" width="120" height="60" as="geometry" />
        </mxCell>
        <mxCell id="w73TdLwUnTMGMDBZPKyH-49" style="edgeStyle=orthogonalEdgeStyle;rounded=1;orthogonalLoop=1;jettySize=auto;html=1;exitX=0.5;exitY=1;exitDx=0;exitDy=0;entryX=0.5;entryY=0;entryDx=0;entryDy=0;strokeWidth=1;endArrow=open;endFill=0;" edge="1" parent="1" source="w73TdLwUnTMGMDBZPKyH-47" target="w73TdLwUnTMGMDBZPKyH-8">
          <mxGeometry relative="1" as="geometry" />
        </mxCell>
        <mxCell id="w73TdLwUnTMGMDBZPKyH-47" value="queueMutex.lock()" style="rounded=1;whiteSpace=wrap;html=1;fillColor=#FFFFFF;" vertex="1" parent="1">
          <mxGeometry x="720" y="39.29" width="120" height="80" as="geometry" />
        </mxCell>
        <mxCell id="w73TdLwUnTMGMDBZPKyH-57" style="edgeStyle=orthogonalEdgeStyle;rounded=1;orthogonalLoop=1;jettySize=auto;html=1;exitX=0.5;exitY=1;exitDx=0;exitDy=0;entryX=0.5;entryY=0;entryDx=0;entryDy=0;strokeWidth=1;endArrow=open;endFill=0;" edge="1" parent="1" source="w73TdLwUnTMGMDBZPKyH-54" target="VH2hl6DuIMkExFH228gK-42">
          <mxGeometry relative="1" as="geometry" />
        </mxCell>
        <mxCell id="w73TdLwUnTMGMDBZPKyH-54" value="queueMutex.unlock()" style="rounded=1;whiteSpace=wrap;html=1;fillColor=#FFFFFF;" vertex="1" parent="1">
          <mxGeometry x="720" y="549.29" width="120" height="80" as="geometry" />
        </mxCell>
        <mxCell id="w73TdLwUnTMGMDBZPKyH-62" value="" style="endArrow=classic;html=1;rounded=1;strokeWidth=1;dashed=1;" edge="1" parent="1">
          <mxGeometry width="50" height="50" relative="1" as="geometry">
            <mxPoint x="480" y="740" as="sourcePoint" />
            <mxPoint x="720" y="-19.998571428571427" as="targetPoint" />
            <Array as="points">
              <mxPoint x="580" y="740" />
              <mxPoint x="580" y="-19.57" />
            </Array>
          </mxGeometry>
        </mxCell>
        <mxCell id="w73TdLwUnTMGMDBZPKyH-78" value="" style="group;fillColor=#FFFFFF;" vertex="1" connectable="0" parent="1">
          <mxGeometry x="720" y="-40.71" width="120" height="40.71" as="geometry" />
        </mxCell>
        <mxCell id="w73TdLwUnTMGMDBZPKyH-1" value="" style="endArrow=none;html=1;rounded=0;fillColor=#FFFFFF;" edge="1" parent="w73TdLwUnTMGMDBZPKyH-78">
          <mxGeometry width="50" height="50" relative="1" as="geometry">
            <mxPoint x="120" y="40" as="sourcePoint" />
            <mxPoint x="120" as="targetPoint" />
          </mxGeometry>
        </mxCell>
        <mxCell id="w73TdLwUnTMGMDBZPKyH-2" value="" style="endArrow=none;html=1;rounded=0;fillColor=#FFFFFF;" edge="1" parent="w73TdLwUnTMGMDBZPKyH-78">
          <mxGeometry width="50" height="50" relative="1" as="geometry">
            <mxPoint x="120" y="40" as="sourcePoint" />
            <mxPoint y="40" as="targetPoint" />
          </mxGeometry>
        </mxCell>
        <mxCell id="w73TdLwUnTMGMDBZPKyH-3" value="" style="endArrow=none;html=1;rounded=0;fillColor=#FFFFFF;" edge="1" parent="w73TdLwUnTMGMDBZPKyH-78">
          <mxGeometry width="50" height="50" relative="1" as="geometry">
            <mxPoint x="120" as="sourcePoint" />
            <mxPoint as="targetPoint" />
          </mxGeometry>
        </mxCell>
        <mxCell id="w73TdLwUnTMGMDBZPKyH-4" value="" style="endArrow=none;html=1;rounded=0;fillColor=#FFFFFF;" edge="1" parent="w73TdLwUnTMGMDBZPKyH-78">
          <mxGeometry width="50" height="50" relative="1" as="geometry">
            <mxPoint as="sourcePoint" />
            <mxPoint x="20" y="20" as="targetPoint" />
          </mxGeometry>
        </mxCell>
        <mxCell id="w73TdLwUnTMGMDBZPKyH-5" value="" style="endArrow=none;html=1;rounded=0;fillColor=#FFFFFF;" edge="1" parent="w73TdLwUnTMGMDBZPKyH-78">
          <mxGeometry width="50" height="50" relative="1" as="geometry">
            <mxPoint y="40" as="sourcePoint" />
            <mxPoint x="20" y="20" as="targetPoint" />
          </mxGeometry>
        </mxCell>
        <mxCell id="w73TdLwUnTMGMDBZPKyH-7" value="Сигнал об окончании чтения" style="text;html=1;strokeColor=none;fillColor=none;align=center;verticalAlign=middle;whiteSpace=wrap;rounded=0;" vertex="1" parent="w73TdLwUnTMGMDBZPKyH-78">
          <mxGeometry x="20" y="0.7100000000000009" width="80" height="40" as="geometry" />
        </mxCell>
        <mxCell id="w73TdLwUnTMGMDBZPKyH-79" value="" style="triangle;whiteSpace=wrap;html=1;rounded=0;strokeColor=#D5E8D4;fillColor=#D5E8D4;gradientColor=none;" vertex="1" parent="w73TdLwUnTMGMDBZPKyH-78">
          <mxGeometry x="-1" width="20" height="40.36" as="geometry" />
        </mxCell>
      </root>
    </mxGraphModel>
  </diagram>
</mxfile>
